<svg xmlns="http://www.w3.org/2000/svg" xmlns:xlink="http://www.w3.org/1999/xlink">
    <defs>
        <svg xmlns:xlink="http://www.w3.org/1999/xlink" id="banner" xmlns="http://www.w3.org/2000/svg" width="630" height="414" viewBox="0 0 630 414" fill="none">
        <mask id="mask0_1757_80581" style="mask-type:alpha" maskUnits="userSpaceOnUse" x="0" y="0" width="630" height="414">
        <rect width="630" height="414" fill="#D9D9D9"/>
        </mask>
        <g mask="url(#mask0_1757_80581)">
        <path d="M109 77.6689L109 363.331C109 368.671 111.858 373 115.383 373H390.617C394.142 373 397 368.671 397 363.331V77.6689C397 72.3289 394.142 68 390.617 68H115.383C111.858 68 109 72.3289 109 77.6689Z" fill="url(#paint0_linear_1757_80581)"/>
        <path d="M554.56 166.299V365.186H206.01V166.299C206.01 160.604 210.635 155.979 216.33 155.979L544.25 155.979C549.945 155.979 554.57 160.604 554.57 166.299H554.56Z" fill="#004047"/>
        <path d="M547.695 168.155V349.849H212.892V168.155C212.892 165.308 215.199 163 218.047 163L542.54 163C545.388 163 547.695 165.308 547.695 168.155Z" fill="#27D9E5"/>
        <path d="M567.555 360.031V375.595C567.555 380.229 563.784 384 559.149 384H201.438C196.803 384 193.032 380.229 193.032 375.595V360.031H567.555Z" fill="#27D9E5"/>
        <path d="M339.367 360.031V363.114C339.367 364.686 340.644 365.952 342.205 365.952H418.382C419.953 365.952 421.22 364.676 421.22 363.114V360.031H339.367Z" fill="#A3ECF1"/>
        <g clip-path="url(#clip0_1757_80581)">
        <path d="M461.077 243.347C461.077 245.2 461.711 246.687 463.003 247.808C464.295 248.93 466.295 249.832 469.05 250.563V235.301C466.563 235.715 464.612 236.666 463.198 238.129C461.784 239.592 461.077 241.347 461.077 243.347ZM481.289 263.826C479.85 262.705 477.802 261.827 475.169 261.145V277.26C477.583 276.797 479.582 275.797 481.143 274.286C482.703 272.774 483.459 270.897 483.459 268.678C483.459 266.46 482.727 264.948 481.289 263.826ZM471.512 194C436.989 194 409 221.989 409 256.512C409 291.035 436.989 319.024 471.512 319.024C506.035 319.024 534.024 291.035 534.024 256.512C534.024 221.989 506.011 194 471.512 194ZM491.114 276.894C489.603 279.357 487.457 281.356 484.727 282.892C481.996 284.453 478.826 285.403 475.194 285.745V292.644H469.074V285.745C465.198 285.428 462.028 284.599 459.59 283.258C457.128 281.917 455.226 280.332 453.861 278.504C452.495 276.675 451.52 274.871 450.91 273.115C450.325 271.36 449.886 269.312 449.643 266.996H459.785C460.053 268.8 460.443 270.312 461.028 271.531C461.589 272.75 462.516 273.896 463.784 274.968C465.051 276.041 466.807 276.797 469.099 277.211V259.779L468.635 259.633C465.685 259.023 462.881 258.121 460.224 256.951C457.566 255.781 455.421 254.147 453.763 252.026C452.105 249.905 451.276 247.101 451.276 243.59C451.276 240.348 452.081 237.52 453.714 235.155C455.348 232.79 457.493 230.912 460.175 229.547C462.857 228.182 465.831 227.328 469.074 227.036V220.307H475.194V227.207C478.558 227.572 481.313 228.377 483.483 229.645C485.653 230.912 487.36 232.351 488.603 233.984C489.847 235.618 490.749 237.178 491.358 238.714C491.943 240.226 492.406 242.03 492.723 244.102H482.727C482.459 242.713 482.118 241.518 481.63 240.543C481.167 239.568 480.411 238.617 479.387 237.666C478.363 236.739 476.949 236.032 475.194 235.569V251.904L476.047 252.148C477.949 252.563 479.924 253.099 481.923 253.733C483.946 254.391 485.799 255.293 487.53 256.488C489.261 257.682 490.675 259.243 491.748 261.169C492.845 263.095 493.382 265.533 493.382 268.483C493.382 271.628 492.626 274.432 491.09 276.894H491.114Z" fill="#004047"/>
        </g>
        <path d="M234.09 267.26H335.807C336.962 267.26 337.898 268.197 337.898 269.352V272.111C337.898 273.266 336.962 274.202 335.807 274.202H234.09C232.935 274.202 231.999 273.266 231.999 272.111V269.352C231.999 268.197 232.935 267.26 234.09 267.26Z" fill="#004047"/>
        <path d="M234.09 280.378H335.807C336.962 280.378 337.898 281.315 337.898 282.47V285.229C337.898 286.384 336.962 287.321 335.807 287.321H234.09C232.935 287.321 231.999 286.384 231.999 285.229V282.47C231.999 281.315 232.935 280.378 234.09 280.378Z" fill="#004047"/>
        <path d="M234.09 293.507H335.807C336.962 293.507 337.898 294.443 337.898 295.598V298.358C337.898 299.513 336.962 300.449 335.807 300.449H234.09C232.935 300.449 231.999 299.513 231.999 298.358V295.598C231.999 294.443 232.935 293.507 234.09 293.507Z" fill="#004047"/>
        <path d="M273.544 306.625H336.249C337.16 306.625 337.898 307.364 337.898 308.275V311.918C337.898 312.829 337.16 313.567 336.249 313.567H273.544C272.633 313.567 271.894 312.829 271.894 311.918V308.275C271.894 307.364 272.633 306.625 273.544 306.625Z" fill="#004047"/>
        <path d="M234.09 187.607H335.807C336.962 187.607 337.898 188.543 337.898 189.698V192.458C337.898 193.613 336.962 194.549 335.807 194.549H234.09C232.935 194.549 231.999 193.613 231.999 192.458V189.698C231.999 188.543 232.935 187.607 234.09 187.607Z" fill="#004047"/>
        <path d="M273.544 200.725H336.249C337.16 200.725 337.898 201.464 337.898 202.375V206.018C337.898 206.929 337.16 207.667 336.249 207.667H273.544C272.633 207.667 271.894 206.929 271.894 206.018V202.375C271.894 201.464 272.633 200.725 273.544 200.725Z" fill="#004047"/>
        <path d="M401.5 242L350.571 217.447H231.995" stroke="#A3ECF1" stroke-width="3" stroke-miterlimit="10" stroke-linecap="round"/>
        <path d="M406.234 289.452L350.57 323.377H231.993" stroke="#A3ECF1" stroke-width="3" stroke-miterlimit="10" stroke-linecap="round"/>
        <path d="M291.248 30H77.2786C68.8341 30 62 36.844 62 45.2786V91.1341C62 99.5785 68.8439 106.413 77.2786 106.413H291.248C299.692 106.413 306.526 99.5687 306.526 91.1341V45.2786C306.526 36.8341 299.682 30 291.248 30ZM204.407 80.7159C197.504 80.7159 191.907 75.119 191.907 68.2162C191.907 61.3133 197.504 55.7164 204.407 55.7164C211.31 55.7164 216.907 61.3133 216.907 68.2162C216.907 75.119 211.31 80.7159 204.407 80.7159ZM263.46 80.7159C256.557 80.7159 250.96 75.119 250.96 68.2162C250.96 61.3133 256.557 55.7164 263.46 55.7164C270.362 55.7164 275.959 61.3133 275.959 68.2162C275.959 75.119 270.362 80.7159 263.46 80.7159ZM291.248 120.945H77.2786C68.8341 120.945 62 127.789 62 136.224V182.069C62 190.514 68.8439 197.348 77.2786 197.348H291.248C299.692 197.348 306.526 190.504 306.526 182.069V136.224C306.526 127.779 299.682 120.945 291.248 120.945ZM204.407 171.661C197.504 171.661 191.907 166.064 191.907 159.161C191.907 152.258 197.504 146.661 204.407 146.661C211.31 146.661 216.907 152.258 216.907 159.161C216.907 166.064 211.31 171.661 204.407 171.661ZM263.46 171.661C256.557 171.661 250.96 166.064 250.96 159.161C250.96 152.258 256.557 146.661 263.46 146.661C270.362 146.661 275.959 152.258 275.959 159.161C275.959 166.064 270.362 171.661 263.46 171.661ZM291.248 211.89H77.2786C68.8341 211.89 62 218.734 62 227.169V273.014C62 281.459 68.8439 288.293 77.2786 288.293H291.248C299.692 288.293 306.526 281.449 306.526 273.014V227.169C306.526 218.724 299.682 211.89 291.248 211.89ZM204.407 262.606C197.504 262.606 191.907 257.009 191.907 250.106C191.907 243.203 197.504 237.606 204.407 237.606C211.31 237.606 216.907 243.203 216.907 250.106C216.907 257.009 211.31 262.606 204.407 262.606ZM263.46 262.606C256.557 262.606 250.96 257.009 250.96 250.106C250.96 243.203 256.557 237.606 263.46 237.606C270.362 237.606 275.959 243.203 275.959 250.106C275.959 257.009 270.362 262.606 263.46 262.606Z" fill="#F0ECE0" stroke="#FF9200" stroke-width="2" stroke-miterlimit="10"/>
        <mask id="mask1_1757_80581" style="mask-type:alpha" maskUnits="userSpaceOnUse" x="61" y="29" width="247" height="261">
        <path opacity="0.5" d="M291.248 30H77.2786C68.8341 30 62 36.844 62 45.2786V91.1341C62 99.5785 68.8439 106.413 77.2786 106.413H291.248C299.692 106.413 306.526 99.5687 306.526 91.1341V45.2786C306.526 36.8341 299.682 30 291.248 30ZM204.407 80.7159C197.504 80.7159 191.907 75.119 191.907 68.2162C191.907 61.3133 197.504 55.7164 204.407 55.7164C211.31 55.7164 216.907 61.3133 216.907 68.2162C216.907 75.119 211.31 80.7159 204.407 80.7159ZM263.46 80.7159C256.557 80.7159 250.96 75.119 250.96 68.2162C250.96 61.3133 256.557 55.7164 263.46 55.7164C270.362 55.7164 275.959 61.3133 275.959 68.2162C275.959 75.119 270.362 80.7159 263.46 80.7159ZM291.248 120.945H77.2786C68.8341 120.945 62 127.789 62 136.224V182.069C62 190.514 68.8439 197.348 77.2786 197.348H291.248C299.692 197.348 306.526 190.504 306.526 182.069V136.224C306.526 127.779 299.682 120.945 291.248 120.945ZM204.407 171.661C197.504 171.661 191.907 166.064 191.907 159.161C191.907 152.258 197.504 146.661 204.407 146.661C211.31 146.661 216.907 152.258 216.907 159.161C216.907 166.064 211.31 171.661 204.407 171.661ZM263.46 171.661C256.557 171.661 250.96 166.064 250.96 159.161C250.96 152.258 256.557 146.661 263.46 146.661C270.362 146.661 275.959 152.258 275.959 159.161C275.959 166.064 270.362 171.661 263.46 171.661ZM291.248 211.89H77.2786C68.8341 211.89 62 218.734 62 227.169V273.014C62 281.459 68.8439 288.293 77.2786 288.293H291.248C299.692 288.293 306.526 281.449 306.526 273.014V227.169C306.526 218.724 299.682 211.89 291.248 211.89ZM204.407 262.606C197.504 262.606 191.907 257.009 191.907 250.106C191.907 243.203 197.504 237.606 204.407 237.606C211.31 237.606 216.907 243.203 216.907 250.106C216.907 257.009 211.31 262.606 204.407 262.606ZM263.46 262.606C256.557 262.606 250.96 257.009 250.96 250.106C250.96 243.203 256.557 237.606 263.46 237.606C270.362 237.606 275.959 243.203 275.959 250.106C275.959 257.009 270.362 262.606 263.46 262.606Z" fill="#F0ECE0" stroke="#FF9200" stroke-width="2" stroke-miterlimit="10"/>
        </mask>
        <g mask="url(#mask1_1757_80581)">
        <g filter="url(#filter0_f_1757_80581)">
        <path d="M109 77.6689L109 363.331C109 368.671 111.858 373 115.383 373H390.617C394.142 373 397 368.671 397 363.331V77.6689C397 72.3289 394.142 68 390.617 68H115.383C111.858 68 109 72.3289 109 77.6689Z" fill="url(#paint1_linear_1757_80581)"/>
        <path d="M554.56 166.299V365.186H206.01V166.299C206.01 160.604 210.635 155.979 216.33 155.979L544.25 155.979C549.945 155.979 554.57 160.604 554.57 166.299H554.56Z" fill="#004047"/>
        <path d="M547.695 168.155V349.849H212.892V168.155C212.892 165.308 215.199 163 218.047 163L542.54 163C545.388 163 547.695 165.308 547.695 168.155Z" fill="#27D9E5"/>
        <path d="M234.09 267.26H335.807C336.962 267.26 337.898 268.197 337.898 269.352V272.111C337.898 273.266 336.962 274.202 335.807 274.202H234.09C232.935 274.202 231.999 273.266 231.999 272.111V269.352C231.999 268.197 232.935 267.26 234.09 267.26Z" fill="#004047"/>
        <path d="M234.09 280.378H335.807C336.962 280.378 337.898 281.315 337.898 282.47V285.229C337.898 286.384 336.962 287.321 335.807 287.321H234.09C232.935 287.321 231.999 286.384 231.999 285.229V282.47C231.999 281.315 232.935 280.378 234.09 280.378Z" fill="#004047"/>
        <path d="M234.09 187.607H335.807C336.962 187.607 337.898 188.543 337.898 189.698V192.458C337.898 193.613 336.962 194.549 335.807 194.549H234.09C232.935 194.549 231.999 193.613 231.999 192.458V189.698C231.999 188.543 232.935 187.607 234.09 187.607Z" fill="#004047"/>
        <path d="M273.544 200.725H336.249C337.16 200.725 337.898 201.464 337.898 202.375V206.018C337.898 206.929 337.16 207.667 336.249 207.667H273.544C272.633 207.667 271.894 206.929 271.894 206.018V202.375C271.894 201.464 272.633 200.725 273.544 200.725Z" fill="#004047"/>
        <path d="M401.5 242L350.571 217.447H231.995" stroke="#A3ECF1" stroke-width="3" stroke-miterlimit="10" stroke-linecap="round"/>
        <path d="M406.234 289.452L350.57 323.377H231.993" stroke="#A3ECF1" stroke-width="3" stroke-miterlimit="10" stroke-linecap="round"/>
        </g>
        </g>
        <path d="M291.248 30H77.2786C68.8341 30 62 36.844 62 45.2786V91.1341C62 99.5785 68.8439 106.413 77.2786 106.413H291.248C299.692 106.413 306.526 99.5687 306.526 91.1341V45.2786C306.526 36.8341 299.682 30 291.248 30V30ZM204.407 80.7159C197.504 80.7159 191.907 75.119 191.907 68.2162C191.907 61.3133 197.504 55.7164 204.407 55.7164C211.31 55.7164 216.907 61.3133 216.907 68.2162C216.907 75.119 211.31 80.7159 204.407 80.7159V80.7159ZM263.46 80.7159C256.557 80.7159 250.96 75.119 250.96 68.2162C250.96 61.3133 256.557 55.7164 263.46 55.7164C270.362 55.7164 275.959 61.3133 275.959 68.2162C275.959 75.119 270.362 80.7159 263.46 80.7159V80.7159ZM291.248 120.945H77.2786C68.8341 120.945 62 127.789 62 136.224V182.069C62 190.514 68.8439 197.348 77.2786 197.348H291.248C299.692 197.348 306.526 190.504 306.526 182.069V136.224C306.526 127.779 299.682 120.945 291.248 120.945ZM204.407 171.661C197.504 171.661 191.907 166.064 191.907 159.161C191.907 152.258 197.504 146.661 204.407 146.661C211.31 146.661 216.907 152.258 216.907 159.161C216.907 166.064 211.31 171.661 204.407 171.661ZM263.46 171.661C256.557 171.661 250.96 166.064 250.96 159.161C250.96 152.258 256.557 146.661 263.46 146.661C270.362 146.661 275.959 152.258 275.959 159.161C275.959 166.064 270.362 171.661 263.46 171.661ZM291.248 211.89H77.2786C68.8341 211.89 62 218.734 62 227.169V273.014C62 281.459 68.8439 288.293 77.2786 288.293H291.248C299.692 288.293 306.526 281.449 306.526 273.014V227.169C306.526 218.724 299.682 211.89 291.248 211.89ZM204.407 262.606C197.504 262.606 191.907 257.009 191.907 250.106C191.907 243.203 197.504 237.606 204.407 237.606C211.31 237.606 216.907 243.203 216.907 250.106C216.907 257.009 211.31 262.606 204.407 262.606ZM263.46 262.606C256.557 262.606 250.96 257.009 250.96 250.106C250.96 243.203 256.557 237.606 263.46 237.606C270.362 237.606 275.959 243.203 275.959 250.106C275.959 257.009 270.362 262.606 263.46 262.606Z" stroke="#FF9200" stroke-width="2" stroke-miterlimit="10"/>
        <path d="M473.08 96.8044H451.951L474.123 46.6639C475.096 44.4636 473.477 42 471.063 42H416.621C414.597 42 412.791 43.2706 412.114 45.1764L386.734 116.909C386.057 118.815 387.481 120.813 389.513 120.813H411.693L386.236 178.376C385.107 180.925 388.291 183.187 390.354 181.304L475.54 103.103C477.977 100.864 476.388 96.8122 473.072 96.8122L473.08 96.8044Z" fill="#FF9200"/>
        </g>
        <defs>
        <filter id="filter0_f_1757_80581" x="94" y="53" width="488.555" height="346" filterUnits="userSpaceOnUse" color-interpolation-filters="sRGB">
        <feFlood flood-opacity="0" result="BackgroundImageFix"/>
        <feBlend mode="normal" in="SourceGraphic" in2="BackgroundImageFix" result="shape"/>
        <feGaussianBlur stdDeviation="7.5" result="effect1_foregroundBlur_1757_80581"/>
        </filter>
        <linearGradient id="paint0_linear_1757_80581" x1="298.41" y1="68.3245" x2="297.432" y2="462.999" gradientUnits="userSpaceOnUse">
        <stop offset="0.249908" stop-color="#A3ECF1"/>
        <stop offset="1" stop-color="white" stop-opacity="0"/>
        </linearGradient>
        <linearGradient id="paint1_linear_1757_80581" x1="298.41" y1="68.3245" x2="297.432" y2="462.999" gradientUnits="userSpaceOnUse">
        <stop offset="0.249908" stop-color="#A3ECF1"/>
        <stop offset="1" stop-color="white" stop-opacity="0"/>
        </linearGradient>
        <clipPath id="clip0_1757_80581">
        <rect width="125" height="125" fill="white" transform="translate(409 194)"/>
        </clipPath>
        </defs>
        </svg>
    </defs>
</svg>
